<svg id="Layer_1" data-name="Layer 1" xmlns="http://www.w3.org/2000/svg" viewBox="0 0 2597 3531.08"><defs><style>.cls-1{fill:#f3c6af;}.cls-2{fill:#00aaa7;}.cls-3{fill:#d9b19c;stroke:#fff;stroke-miterlimit:10;stroke-width:38px;}.cls-4{fill:#473b33;}.cls-5{opacity:0.57;}.cls-6{fill:#534741;}</style></defs><title>me</title><path class="cls-1" d="M1817,4001c0-482.14-210-873-469-873s-469,390.86-469,873" transform="translate(-702 -469.92)"/><path class="cls-1" d="M3121,4001c0-482.14-210-873-469-873s-469,390.86-469,873" transform="translate(-702 -469.92)"/><path class="cls-2" d="M2662.16,3636.53l381.07-274S2742,2783.46,2513,2746c-115.79-18.94-392.73,136.76-392.73,136.76Z" transform="translate(-702 -469.92)"/><path class="cls-2" d="M1345.34,3636.53l-381.07-274s301.19-579.12,530.24-616.58c115.79-18.94,392.72,136.76,392.72,136.76Z" transform="translate(-702 -469.92)"/><path class="cls-2" d="M2683,3999.5c0-775.13-305.79-1403.5-683-1403.5s-683,628.37-683,1403.5" transform="translate(-702 -469.92)"/><ellipse class="cls-3" cx="1298" cy="2276.08" rx="340" ry="288"/><path class="cls-1" d="M2001.8,2857.08h0c-618.42,0-1121-357.55-1121-976l-1.3-324.35c0-259.08,166.41-673.59,397.55-790.63l.83-.42a1643.21,1643.21,0,0,1,1485.32.34h0c231,117.1,355.81,531.53,355.81,790.49l1.29,324.57C3120.25,2499.53,2620.22,2857.08,2001.8,2857.08Z" transform="translate(-702 -469.92)"/><path class="cls-4" d="M880.75,1556.76c.1-48.6-101-144.19-101-162,0-7.77,126.4-37.51,131.32-57.07,3.21-12.76-100-73.84-96.35-86.7,3.06-10.69,110.6,3,114-7.77,8.78-27.88-12.95-103.62-80.31-171-16-16,147.26,28.1,168-11.5,14.75-28.19-218.49-52,14.66-63.62,13.93-.7-32.1-117-22-130.82s104.41,42.62,115,29.8c19-22.87,28.73-81.61,2.83-134.72-17.91-36.71,118.38,21.52,151.44,4.78l.84-.42c30.84-15.62,39.1-138.75,49.78-149.43,3.33-3.33,33.36,50.93,81.6,64.76,1.21.35,25.15-106.61,40.15-102.32,18.14,5.18,69,88,96.92,79.55,20.42-6.16-11.3-111.78,9.29-117.11,28.84-7.48,110.07,85.72,139.18,79.84,33.25-6.71,25.43-133.64,30.5-125.18,3.89,6.48,116,102.26,139.19,100.05,31.15-3,56.4-125.95,74.53-125.95,5.18,0,70.25,118.4,95.85,118.62,34.26.31,69.94-86.24,76.42-83.65,3.8,1.52,57.95,90.28,73.75,91.87,16,1.61,56.41-70.66,64.84-68.56,10.37,2.59,17,78.79,33.91,81.55,20.68,3.36,60.65-73.78,72.3-81.55,3.55-2.36,20.73,20.73,38.52,55.92,37.52,74.2,92.56-42.55,104-23.54,3.89,6.48-29,90.76-13,94.56,19.86,4.69,100.19-62.35,117.87-57,6.89,2.08-48.13,76.26-41.48,78.45,4.23,1.4,14.75-.37,28.25-3.63,10.91-2.64,23.77-6.25,36.82-10,9.87-2.8,19.85-5.65,29.17-8.17,21.1-5.69,39.2-12.66,44.38-7.48,9.57,9.56-50,64.44-37.56,69.94,18.44,8.15,111.88-43.7,126.94-36.27s-48.25,74.14-26.82,85h0c60.49,39.34,146-8.59,153.75,1.78,6.95,9.26-32.74,94.09-14.66,116.65,10.77,13.43,150.67,15.46,149.37,31-1.4,16.78-94,48.68-82.78,68.58,17.74,31.49,137,45.71,139.77,58.35,2.59,11.66-67.76,99.07-57.7,128.91,10.91,32.36,138,38.18,143.19,57.61,6.29,23.6-103,87.55-98.31,110.94,6.11,30.75,107.38,41.9,111.26,51,7.79,18.17-92.12,78.43-90.73,97.15,1.77,23.77,2.65,46.71,2.65,68.54,0,0-23.13-13.84-53.1-32.94-18.08-11.52-19.39-107.63-38.86-121.1-27.8-19.23-86.37,66.76-88.08,47.93-1.29-14.25,35-98.44-51.81-114-22.26-4-55,43.61-62.17,38.85-6.28-4.19-17.23-100.11-23.32-102.32-14.24-5.18-61.12,70.9-71.23,68.65-11.66-2.59-44.84-103.76-47.93-104.92-12.66-4.75-91.68,77.72-103.62,77.72-10.36,0-36.27-99.74-51.81-97.15-30.48,5.08-81.6,81.6-97.15,82.9-6.58.55-44.37-74.14-80.3-68.65-18.23,2.78-58.29,99.74-68.65,103.62-20.12,7.55-57.17-89-80.31-85.49-15.31,2.33-86.78,75.13-93.26,75.13-11.94,0,24.61-108.8-57-75.13-23.6,9.74-71.24,64.77-85.48,62.18s-30.18-56.25-47.93-55.7c-28.51.89-70.42,96.63-82.9,95.85-20.72-1.3-35.2-101.7-57-98.44-34.58,5.17-68.65,123-82.89,124.34-7.74.71-62.89-92.07-99.74-92-45.18.14-90,80.55-110.1,79-16.83-1.29-33.92-64.69-57-67.35-33.67-3.89-51.81,125.64-99.73,69.94-60-69.72-70,95.85-94.56,99.74-12.79,2-47.92-55.7-73.83-62.17-38.44-9.62-64.76,112.11-68.65,115.27-21.11,17.16-40.78-84.9-67.35-79-26.08,5.78-29,76.8-48.27,95.34C958.69,1553.64,880.75,1556.76,880.75,1556.76Z" transform="translate(-702 -469.92)"/><circle class="cls-1" cx="178.1" cy="1266.12" r="178.1"/><circle class="cls-1" cx="2418.9" cy="1264.82" r="178.1"/><path class="cls-5" d="M1934.63,1936.76c1.52,1.11,35.48-67.09,65.64-67.39,34.24-.34,64.31,68,65.63,67.39s-27.82-80.64-65.63-80.3C1963.12,1856.79,1933.79,1936.15,1934.63,1936.76Z" transform="translate(-702 -469.92)"/><path class="cls-5" d="M2185.11,2320.59c-4.44-1.12-103.5,66.87-191.35,67-99.76.12-187.2-68.42-191.06-67.81s80.86,80.82,191,80.73C2101.94,2400.38,2187.54,2321.2,2185.11,2320.59Z" transform="translate(-702 -469.92)"/><path class="cls-6" d="M2566.77,1602.81c60.77,8.54,102.79,67.25,94.08,131.27l45.2,6.35c12.77-90.85-46.76-174.32-133-186.44s-166.42,51.72-179.19,142.58l46.25,6.5C2449.43,1639.12,2506,1594.27,2566.77,1602.81Z" transform="translate(-702 -469.92)"/><path class="cls-6" d="M1489.94,1602.21c60.77-8.54,117.34,36.31,126.61,100.26l45.2-6.35c-12.77-90.86-93-154.69-179.19-142.57s-145.72,95.58-133,186.44l46.25-6.5C1387.15,1669.46,1429.17,1610.75,1489.94,1602.21Z" transform="translate(-702 -469.92)"/></svg>